Coordinates
version=1
nRows=54
nColumns=12
inDegrees=yes

Units are S.I. units (second, meters, Newtons, ...)
Angles are in degrees

endheader
time	SC_y	SC_z	SC_x	AC_y	AC_z	AC_x	GH_y	GH_z	GH_yy	EL_x	PS_y
       0.0              -49.94          14.33          40.13          32.41          4.932          -16.2          59.05          8.877          16.27          104.4          7.283
   0.01364              -49.94          14.33          40.13          32.42           4.93          -16.2          59.04          8.888          16.28          104.4          7.298
   0.02728              -49.94          14.33          40.13          32.42          4.929          -16.2          59.03            8.9          16.28          104.4          7.315
   0.04092              -49.94          14.34          40.13          32.42          4.927          -16.2          59.02          8.913          16.29          104.4          7.333
   0.05456              -49.94          14.34          40.13          32.42          4.925          -16.2          59.01          8.926           16.3          104.4          7.352
    0.0682              -49.94          14.34          40.13          32.43          4.923          -16.2           59.0           8.94          16.31          104.4          7.372
   0.08184              -49.93          14.35          40.13          32.43           4.92          -16.2          58.98          8.955          16.33          104.4          7.393
   0.09548              -49.93          14.35          40.12          32.43          4.918          -16.2          58.97          8.972          16.34          104.4          7.416
    0.1091              -49.93          14.36          40.12          32.44          4.915          -16.2          58.95          8.989          16.35          104.4          7.441
    0.1228              -49.93          14.36          40.12          32.44          4.913          -16.2          58.94          9.008          16.36          104.4          7.467
    0.1364              -49.93          14.37          40.12          32.44           4.91          -16.2          58.92          9.028          16.38          104.4          7.495
      0.15              -49.92          14.37          40.11          32.45          4.906          -16.2           58.9          9.049          16.39          104.4          7.526
    0.1637              -49.92          14.38          40.11          32.45          4.903          -16.2          58.88          9.073          16.41          104.4          7.559
    0.1773              -49.92          14.38          40.11          32.46          4.899          -16.2          58.85          9.098          16.43          104.4          7.594
     0.191              -49.92          14.39          40.11          32.46          4.895          -16.2          58.83          9.125          16.45          104.5          7.633
    0.2046              -49.91           14.4           40.1          32.47          4.891         -16.19           58.8          9.155          16.47          104.5          7.674
    0.2182              -49.91           14.4           40.1          32.48          4.886         -16.19          58.77          9.187          16.49          104.5           7.72
    0.2319               -49.9          14.41           40.1          32.48          4.881         -16.19          58.74          9.222          16.52          104.5          7.769
    0.2455               -49.9          14.42          40.09          32.49          4.875         -16.19          58.71           9.26          16.55          104.5          7.823
    0.2591              -49.89          14.43          40.09           32.5          4.869         -16.19          58.67          9.301          16.58          104.5          7.882
    0.2728              -49.89          14.44          40.08          32.51          4.862         -16.19          58.63          9.347          16.61          104.5          7.947
    0.2864              -49.88          14.46          40.08          32.52          4.855         -16.19          58.58          9.398          16.65          104.5          8.018
    0.3001              -49.88          14.47          40.07          32.53          4.846         -16.19          58.53          9.454          16.69          104.5          8.097
    0.3137              -49.87          14.48          40.06          32.54          4.837         -16.19          58.47          9.515          16.73          104.5          8.184
    0.3273              -49.86           14.5          40.06          32.56          4.827         -16.18          58.41          9.584          16.78          104.5          8.281
     0.341              -49.85          14.52          40.05          32.57          4.815         -16.18          58.34          9.661          16.84          104.5          8.389
    0.3546              -49.84          14.54          40.04          32.59          4.803         -16.18          58.26          9.746           16.9          104.6           8.51
    0.3683              -49.83          14.56          40.03          32.61          4.788         -16.18          58.17          9.843          16.97          104.6          8.647
    0.3819              -49.82          14.59          40.02          32.63          4.772         -16.17          58.07          9.952          17.05          104.6          8.801
    0.3955              -49.81          14.62           40.0          32.66          4.754         -16.17          57.96          10.08          17.14          104.6          8.976
    0.4092              -49.79          14.65          39.99          32.69          4.733         -16.17          57.83          10.22          17.24          104.6          9.176
    0.4228              -49.77          14.69          39.97          32.72          4.709         -16.16          57.68          10.38          17.36          104.7          9.405
    0.4365              -49.75          14.74          39.95          32.76          4.681         -16.16          57.51          10.57           17.5          104.7          9.669
    0.4501              -49.73          14.79          39.92          32.81          4.648         -16.15          57.32          10.78          17.65          104.7          9.977
    0.4637               -49.7          14.85          39.89          32.86           4.61         -16.15          57.08          11.04          17.84          104.8          10.34
    0.4774              -49.66          14.93          39.86          32.92          4.566         -16.14          56.81          11.34          18.06          104.8          10.76
     0.491              -49.62          15.01          39.82          32.99          4.513         -16.13          56.48           11.7          18.32          104.9          11.26
    0.5047              -49.57          15.12          39.77          33.08          4.449         -16.12          56.09          12.12          18.63          104.9          11.87
    0.5183              -49.51          15.24          39.72          33.19          4.372         -16.11          55.62          12.64           19.0          105.0           12.6
    0.5319              -49.44           15.4          39.65          33.32          4.278         -16.09          55.05          13.27          19.46          105.1          13.49
    0.5456              -49.35          15.59          39.56          33.48          4.162         -16.07          54.33          14.05          20.03          105.2          14.59
    0.5592              -49.24          15.83          39.45          33.68          4.018         -16.05          53.45          15.03          20.74          105.4          15.97
    0.5729               -49.1          16.12          39.32          33.93          3.835         -16.02          52.33          16.25          21.63          105.6           17.7
    0.5865              -48.92           16.5          39.15          34.25          3.604         -15.98          50.91          17.81          22.76          105.8           19.9
    0.6001               -48.7          16.99          38.92          34.66          3.307         -15.93          49.09           19.8          24.21          106.2          22.72
    0.6138              -48.41          17.61          38.64          35.18          2.927         -15.87          46.76          22.36          26.07          106.6          26.33
    0.6274              -48.03          18.41          38.28          35.85          2.441         -15.79          43.78          25.63          28.45          107.1          30.95
     0.641              -47.56          19.41          37.83           36.7          1.829         -15.68          40.03          29.74          31.43          107.7          36.75
    0.6547              -46.99          20.63          37.27          37.73          1.085         -15.56          35.47          34.75          35.07          108.6          43.83
    0.6683              -46.33          22.04          36.63          38.92         0.2213         -15.42          30.17          40.55          39.29          109.5          52.03
     0.682              -45.62          23.57          35.93          40.21        -0.7135         -15.26          24.44          46.84          43.86          110.5          60.91
    0.6956               -44.9           25.1          35.24           41.5         -1.648          -15.1          18.71          53.12          48.43          111.5          69.78
    0.7092              -44.24          26.51           34.6          42.69         -2.512         -14.96          13.42          58.93          52.65          112.4          77.98
    0.7229              -43.67          27.73          34.04          43.72         -3.256         -14.84          8.854          63.93          56.29          113.2          85.06
